<?xml version="1.0" encoding="UTF-8" standalone="no"?>
<svg
   xmlns:dc="http://purl.org/dc/elements/1.1/"
   xmlns:cc="http://creativecommons.org/ns#"
   xmlns:rdf="http://www.w3.org/1999/02/22-rdf-syntax-ns#"
   xmlns:svg="http://www.w3.org/2000/svg"
   xmlns="http://www.w3.org/2000/svg"
   xmlns:sodipodi="http://sodipodi.sourceforge.net/DTD/sodipodi-0.dtd"
   xmlns:inkscape="http://www.inkscape.org/namespaces/inkscape"
   id="Capa_1"
   data-name="Capa 1"
   viewBox="0 0 1118.67 540.35"
   version="1.1"
   sodipodi:docname="pymty-logo.svg"
   inkscape:version="1.0.2 (e86c870879, 2021-01-15)">
  <metadata
     id="metadata93">
    <rdf:RDF>
      <cc:Work
         rdf:about="">
        <dc:format>image/svg+xml</dc:format>
        <dc:type
           rdf:resource="http://purl.org/dc/dcmitype/StillImage" />
      </cc:Work>
    </rdf:RDF>
  </metadata>
  <sodipodi:namedview
     pagecolor="#ffffff"
     bordercolor="#666666"
     borderopacity="1"
     objecttolerance="10"
     gridtolerance="10"
     guidetolerance="10"
     inkscape:pageopacity="0"
     inkscape:pageshadow="2"
     inkscape:window-width="1916"
     inkscape:window-height="1032"
     id="namedview91"
     showgrid="false"
     inkscape:zoom="0.97438113"
     inkscape:cx="395.28073"
     inkscape:cy="281.02373"
     inkscape:window-x="0"
     inkscape:window-y="22"
     inkscape:window-maximized="0"
     inkscape:current-layer="Capa_1" />
  <defs
     id="defs4">
    <style
       id="style2">.cls-1{fill:#f1d492;}.cls-2{fill:#e39299;}.cls-3,.cls-8,.cls-9{fill:#fff;}.cls-4{fill:#75a942;}.cls-5{fill:#285224;}.cls-6{fill:#2d465b;}.cls-12,.cls-13,.cls-7{fill:#010101;}.cls-7,.cls-9{opacity:0.3;}.cls-8{opacity:0.35;}.cls-10,.cls-11{fill:none;stroke:#010101;stroke-miterlimit:10;}.cls-10{stroke-width:9px;}.cls-11{stroke-width:6px;}.cls-13{font-size:145px;font-family:Flux;}</style>
  </defs>
  <title
     id="title6">LogoCompletoPNG</title>
  <circle
     class="cls-1"
     cx="258"
     cy="284.35"
     r="254.5"
     id="circle8" />
  <path
     class="cls-2"
     d="M350.54,496.31l26-17s-6,51,11,68c0,0-16-1-21-7l-5,20S345.54,551.31,350.54,496.31Z"
     transform="translate(-55.04 -117.46)"
     id="path10" />
  <path
     class="cls-3"
     d="M343.54,371.31s-14,52,17,41,43-53,43-53l3-16"
     transform="translate(-55.04 -117.46)"
     id="path12" />
  <path
     class="cls-4"
     d="M146.54,414.31s-4-32,21-23,26,12,32,5-14-28-14-28-27-25-46-7-32,55-27,88,11,71,29,109,22,47,22,47,82,56,141,48c0,0-127-120-152-210C152.54,443.31,146.54,421.31,146.54,414.31Z"
     transform="translate(-55.04 -117.46)"
     id="path14" />
  <path
     class="cls-4"
     d="M245.54,414.31s-44,139,16,125c55-12.85,120-66,120-66s53,8,105-68c0,0,9,39-16,97,0,0-29,76-14,106,0,0,82-56,100-142s0-129,0-129-11-45-26-66c0,0-31,34-123,73,0,0-16,59-52,70,0,0-29,3-11-45"
     transform="translate(-55.04 -117.46)"
     id="path16" />
  <path
     class="cls-5"
     d="M114,424.81l10.23,17.67a2.84,2.84,0,0,1,.08,2.7l-8.22,16.45a.06.06,0,0,1-.11,0l-2-25.8"
     transform="translate(-55.04 -117.46)"
     id="path18" />
  <path
     class="cls-5"
     d="M122.54,506.31l22.19,17.92a8.13,8.13,0,0,1,2.87,7.88l-6.06,31.2"
     transform="translate(-55.04 -117.46)"
     id="path20" />
  <path
     class="cls-5"
     d="M157.54,594.31l39.93,14.44a10.71,10.71,0,0,1,7.07,10.07v12.49l-39-22"
     transform="translate(-55.04 -117.46)"
     id="path22" />
  <path
     class="cls-5"
     d="M537.54,514.31l-7-32a15.17,15.17,0,0,1,5.1-14.91l22.92-19.09"
     transform="translate(-55.04 -117.46)"
     id="path24" />
  <path
     class="cls-6"
     d="M185.54,400.31s1,37,63,11,195-84,195-84,123-60,142-119-76-85-76-85-39-13-75,17c0,0-35,5-50-9s-12,16-12,16,5,12-11,4-16-22-21,1c0,0,0,50-19,79,0,0-48-9-56,14s-58,128-69,135c0,0,11,25-8,20"
     transform="translate(-55.04 -117.46)"
     id="path26" />
  <path
     class="cls-7"
     d="M166.54,477.31s63,179,135,176c0,0-117-123-129-166"
     transform="translate(-55.04 -117.46)"
     id="path28" />
  <path
     class="cls-7"
     d="M245.54,414.31s252-99,286-143l5,11s-321,255-298,156"
     transform="translate(-55.04 -117.46)"
     id="path30" />
  <path
     class="cls-7"
     d="M332.54,375.31s107-58,138-114,77-123,117-71c0,0,15,78-220,171"
     transform="translate(-55.04 -117.46)"
     id="path32" />
  <path
     class="cls-7"
     d="M412.54,450.31s33,0,98-91c0,0-47,118-130,115"
     transform="translate(-55.04 -117.46)"
     id="path34" />
  <path
     class="cls-7"
     d="M499.54,388.31s20,46-17,124c0,0-20,55-6,80l-20,14s-15-30,14-104,15-95,15-95"
     transform="translate(-55.04 -117.46)"
     id="path36" />
  <path
     class="cls-7"
     d="M375.54,487.31a157.94,157.94,0,0,1-23,17v-10l23-15"
     transform="translate(-55.04 -117.46)"
     id="path38" />
  <path
     class="cls-3"
     d="M395.54,371.31c-43,60-55,25-55,25s4,53,55-19"
     transform="translate(-55.04 -117.46)"
     id="path40" />
  <path
     class="cls-8"
     d="M368.54,538.31s-7,4-5-34c0,0-8,40-3,56"
     transform="translate(-55.04 -117.46)"
     id="path42" />
  <path
     class="cls-9"
     d="M316.54,242.31s-35.64-5.5-44,14c-21,49-51,98-60,103,0,0,40-87,52-114s55-16,55-16"
     transform="translate(-55.04 -117.46)"
     id="path44" />
  <path
     class="cls-9"
     d="M255.54,347.31s56-42,89-139c0,0,9-30,6-53,0,0-2-12,3-8,0,0-12-18-13,3a374.66,374.66,0,0,1-4,39s-48,120-69,140"
     transform="translate(-55.04 -117.46)"
     id="path46" />
  <path
     class="cls-9"
     d="M372.54,153.31s20,7,19,0-10-4-12-23c0,0-8-2-6,13"
     transform="translate(-55.04 -117.46)"
     id="path48" />
  <path
     class="cls-9"
     d="M536.54,133.31s-92.49-20.39-129,94c-30,94-162,151-162,151s68-29,112-95,47-98,47-98,24-77,100-65"
     transform="translate(-55.04 -117.46)"
     id="path50" />
  <path
     class="cls-10"
     d="M341.05,148.89a255.64,255.64,0,0,0-28.51-1.58c-139.73,0-253,113.27-253,253s113.27,253,253,253,253-113.28,253-253a251.89,251.89,0,0,0-34.73-128"
     transform="translate(-55.04 -117.46)"
     id="path52" />
  <path
     class="cls-11"
     d="M163,601.81c-27-43-41-99-41-99-30-113,20.5-143.5,20.5-143.5,15-13,51.64,6.58,57,31,4.5,20.5-23.5,3.5-23.5,3.5s-20-9-26,0-9,31,24,99,133.5,160.5,133.5,160.5"
     transform="translate(-55.04 -117.46)"
     id="path54" />
  <path
     class="cls-11"
     d="M186,398.64s-5,41.17,62,13.17,197.5-85.5,197.5-85.5,194-94,128.5-164.5c-44.54-47.94-93-41-93-41s-56-4-83,82c-26.67,84.93-96,140-96,140"
     transform="translate(-55.04 -117.46)"
     id="path56" />
  <path
     class="cls-11"
     d="M320,230.81s-38-6-49,7c-10.75,12.7-16,31.51-19,39-4,10-19.89,51-55.94,104.5"
     transform="translate(-55.04 -117.46)"
     id="path58" />
  <path
     class="cls-11"
     d="M434,140.81s-31,8-52-11c0,0-10-8-8,15s-24-3-24-3-10-7-9,12-10,54-10,54-31,77-51,104"
     transform="translate(-55.04 -117.46)"
     id="path60" />
  <path
     class="cls-11"
     d="M245.37,412.9S194,567.81,274,535.81s131-82,131-82,62-59,65-117"
     transform="translate(-55.04 -117.46)"
     id="path62" />
  <path
     class="cls-11"
     d="M377.16,477.15s-7.62,54.16,10.88,71.66c0,0-13.5-.5-22-9a67.42,67.42,0,0,0-4,21s-17-11-10-66"
     transform="translate(-55.04 -117.46)"
     id="path64" />
  <path
     class="cls-12"
     d="M496.67,382.24c4.28-6.73,8.13-13.91,11.89-21.11s7.38-14.51,11-21.82c-2.68,7.69-5.38,15.39-8.24,23s-5.81,15.28-9.38,22.81Z"
     transform="translate(-55.04 -117.46)"
     id="path66" />
  <path
     class="cls-11"
     d="M380.34,474.72s63.33,8.92,119-91"
     transform="translate(-55.04 -117.46)"
     id="path68" />
  <path
     class="cls-11"
     d="M486.29,405S499,425.81,470,501.81s-14,102-14,102"
     transform="translate(-55.04 -117.46)"
     id="path70" />
  <path
     class="cls-12"
     d="M456.54,338.31a12.81,12.81,0,0,1,6-5.16,15,15,0,0,1,8.2-1,14.39,14.39,0,0,1,7.54,3.47,8.53,8.53,0,0,1,1.43,1.45c.43.52.83,1.06,1.21,1.61a9.68,9.68,0,0,1,.9,1.79,13.67,13.67,0,0,1,.67,1.89c-1.35-.43-2.42-1-3.53-1.47-.56-.22-1.1-.43-1.61-.67-.27-.1-.51-.24-.77-.33s-.54-.16-.79-.26a27.36,27.36,0,0,0-5.93-1.55,30.44,30.44,0,0,0-6.19-.31C461.52,337.81,459.22,338,456.54,338.31Z"
     transform="translate(-55.04 -117.46)"
     id="path72" />
  <path
     class="cls-12"
     d="M242.14,380.48c5.24-2.87,10.4-5.89,15.49-9s10.14-6.29,15.07-9.61,9.79-6.75,14.47-10.36a158.69,158.69,0,0,0,13.36-11.45l4,4.45a164.09,164.09,0,0,1-14.78,10.68c-5.08,3.27-10.27,6.3-15.5,9.24s-10.56,5.68-15.91,8.36S247.61,378.06,242.14,380.48Z"
     transform="translate(-55.04 -117.46)"
     id="path74" />
  <polygon
     class="cls-12"
     points="200.5 229.85 223.04 192.14 227.96 195.56 200.5 229.85"
     id="polygon76" />
  <ellipse
     class="cls-12"
     cx="292.04"
     cy="494.31"
     rx="6.5"
     ry="4"
     transform="translate(-337.1 382.61) rotate(-60)"
     id="ellipse78" />
  <path
     class="cls-11"
     d="M343.2,370.65c-6.14,20.63-4.78,38,4.63,42.77,12.56,6.37,34.7-12,49.45-41.07A121.21,121.21,0,0,0,408,342.51"
     transform="translate(-55.04 -117.46)"
     id="path80" />
  <path
     class="cls-12"
     d="M367.25,360.4c.24,10.29,3.93,18.48,8.44,18.48,4.66,0,8.44-8.75,8.44-19.54a43.13,43.13,0,0,0-.43-6.15"
     transform="translate(-55.04 -117.46)"
     id="path82" />
  <text
     class="cls-13"
     transform="translate(543.61 307.46)"
     id="text88"
     style="fill:#ececec;"><tspan
       xml:space="preserve"
       id="tspan84"
       style="fill:#ececec;"> Python </tspan><tspan
       x="0"
       y="174"
       id="tspan86"
       style="fill:#ececec;">Monterrey</tspan></text>
</svg>
